<?xml version="1.0" encoding="utf-8"?>
<!-- Generator: Adobe Illustrator 23.0.5, SVG Export Plug-In . SVG Version: 6.00 Build 0)  -->
<svg version="1.1" id="Layer_1" xmlns="http://www.w3.org/2000/svg" xmlns:xlink="http://www.w3.org/1999/xlink" x="0px" y="0px"
	 viewBox="0 0 21.7 21.4" style="enable-background:new 0 0 21.7 21.4;" xml:space="preserve">
<style type="text/css">
	.st0{fill:#020203;}
</style>
<g>
	<path class="st0" d="M20.4,10.6c0-2.6-1.1-5-3-6.8C15.6,2,13.2,1,10.6,1C8.1,1,5.7,2,3.9,3.8l0,0C2,5.6,1.1,8.1,1.1,10.7
		c0,2.6,1.1,5,3,6.8c1.8,1.8,4.2,2.7,6.8,2.7c2.5,0,4.9-1,6.8-2.7l0,0C19.5,15.7,20.4,13.2,20.4,10.6z M19.5,10.7
		c0,2.3-0.9,4.4-2.4,6.1l0,0l-0.1,0.1c-1.7,1.6-3.8,2.6-6.2,2.6c0,0,0,0,0,0c-2.3,0-4.5-0.9-6.2-2.6c-3.4-3.4-3.4-9,0-12.4
		c1.7-1.7,3.9-2.6,6.2-2.6c2.2,0,4.5,0.9,6.2,2.6C18.6,6.1,19.5,8.3,19.5,10.7z"/>
	<path class="st0" d="M14.5,11.5c-0.5-0.5-1.3-0.5-1.7,0l-1,1c0,0,0,0-0.1,0c-0.6-0.4-1.1-0.8-1.5-1.3c-0.4-0.4-0.8-0.9-1.2-1.4
		c0,0,0,0,0,0L10,8.7c0.5-0.5,0.5-1.3,0-1.7L8.2,5.2l0,0c-0.5-0.5-1.2-0.5-1.7,0L5.9,5.8C5,6.7,4.7,8,5.1,9.2
		c0.3,0.9,0.7,1.7,1.2,2.4c0.5,0.7,1,1.3,1.6,1.9c0.6,0.6,1.3,1.2,2.1,1.7c0.8,0.5,1.7,0.9,2.7,1.2c0.3,0.1,0.5,0.1,0.8,0.1
		c0,0,0,0,0,0c0.9,0,1.8-0.4,2.4-1l0.5-0.5c0.5-0.5,0.5-1.3,0-1.7L14.5,11.5z M9.3,8L8.2,9.1C7.9,9.4,7.8,10,8.1,10.4
		c0.4,0.5,0.8,1,1.3,1.5c0.5,0.5,1.1,1,1.7,1.4c0.4,0.3,1,0.2,1.3-0.1l1-1c0,0,0.1-0.1,0.2-0.1c0.1,0,0.1,0,0.2,0.1l1.8,1.8
		c0,0,0.1,0.1,0.1,0.2c0,0,0,0.1,0,0.1l-0.5,0.5c-0.6,0.6-1.4,0.8-2.2,0.6c-0.9-0.2-1.7-0.6-2.4-1.1c-0.7-0.4-1.3-1-1.9-1.5
		c-0.5-0.5-1-1.1-1.4-1.7C6.6,10.4,6.3,9.7,6,8.9C5.7,8,6,7.1,6.6,6.5l0.6-0.6c0,0,0.1-0.1,0.2-0.1c0,0,0,0,0,0c0.1,0,0.1,0,0.2,0.1
		l1.8,1.8c0,0,0.1,0.1,0.1,0.2C9.3,7.9,9.3,8,9.3,8z"/>
</g>
</svg>
