<?xml version="1.0" encoding="utf-8"?>
<!-- Generator: Adobe Illustrator 23.0.5, SVG Export Plug-In . SVG Version: 6.00 Build 0)  -->
<svg version="1.1" id="Layer_1" xmlns="http://www.w3.org/2000/svg" xmlns:xlink="http://www.w3.org/1999/xlink" x="0px" y="0px"
	 viewBox="0 0 23.7 17.8" style="enable-background:new 0 0 23.7 17.8;" xml:space="preserve">
<style type="text/css">
	.st0{fill:#020203;}
</style>
<path class="st0" d="M19.9,1H3.8C2.3,1,1.1,2.2,1.1,3.7v10.3c0,1.5,1.2,2.7,2.7,2.7h16.1c1.5,0,2.7-1.2,2.7-2.7V3.7
	C22.6,2.2,21.4,1,19.9,1z M19.5,2.8l-7.6,5.9L4.3,2.8H19.5z M19.9,15H3.8c-0.5,0-1-0.4-1-1V3.9l8.5,6.5c0.2,0.1,0.3,0.2,0.5,0.2
	s0.4-0.1,0.5-0.2l8.5-6.5v10.1C20.9,14.6,20.5,15,19.9,15z"/>
</svg>
