<?xml version="1.0" encoding="utf-8"?>
<!-- Generator: Adobe Illustrator 23.0.5, SVG Export Plug-In . SVG Version: 6.00 Build 0)  -->
<svg version="1.1" id="Layer_1" xmlns="http://www.w3.org/2000/svg" xmlns:xlink="http://www.w3.org/1999/xlink" x="0px" y="0px"
	 viewBox="0 0 19.2 18.9" style="enable-background:new 0 0 19.2 18.9;" xml:space="preserve">
<style type="text/css">
	.st0{fill:#020203;}
</style>
<g>
	<g>
		<g>
			<path class="st0" d="M12.9,0.9H6.5c-3,0-5.4,2.4-5.4,5.4v6.4c0,3,2.4,5.4,5.4,5.4h6.4c3,0,5.4-2.4,5.4-5.4V6.3
				C18.2,3.3,15.8,0.9,12.9,0.9z M16.6,12.7c0,2.1-1.7,3.7-3.7,3.7H6.5c-2.1,0-3.7-1.7-3.7-3.7V6.3c0-2.1,1.7-3.7,3.7-3.7h6.4
				c2.1,0,3.7,1.7,3.7,3.7V12.7z"/>
		</g>
	</g>
	<g>
		<g>
			<path class="st0" d="M9.7,5.2c-2.4,0-4.3,1.9-4.3,4.3s1.9,4.3,4.3,4.3S14,11.8,14,9.5S12,5.2,9.7,5.2z M9.7,12.1
				C8.2,12.1,7,10.9,7,9.5C7,8,8.2,6.8,9.7,6.8s2.7,1.2,2.7,2.7C12.4,10.9,11.2,12.1,9.7,12.1z"/>
		</g>
	</g>
	<g>
		<g>
			<circle class="st0" cx="14.3" cy="4.9" r="0.6"/>
		</g>
	</g>
</g>
</svg>
