<?xml version="1.0" encoding="utf-8"?>
<!-- Generator: Adobe Illustrator 23.0.5, SVG Export Plug-In . SVG Version: 6.00 Build 0)  -->
<svg version="1.1" id="Layer_1" xmlns="http://www.w3.org/2000/svg" xmlns:xlink="http://www.w3.org/1999/xlink" x="0px" y="0px"
	 viewBox="0 0 48.6 49.7" style="enable-background:new 0 0 48.6 49.7;" xml:space="preserve">
<style type="text/css">
	.st0{fill:#4CAF50;stroke:#FFFFFF;stroke-width:1.8063;stroke-miterlimit:10;}
	.st1{fill:#FAFAFA;}
</style>
<g>
	<path class="st0" d="M24.5,3.1C12.6,3.1,3,12.7,3,24.6c0,4.1,1.2,8.1,3.4,11.6L3,44.9c-0.2,0.5,0.1,1,0.5,1.2
		c0.1,0,0.2,0.1,0.3,0.1c0.1,0,0.2,0,0.3-0.1l9-3.2c10.1,6.3,23.3,3.2,29.6-6.9s3.2-23.3-6.9-29.6C32.4,4.2,28.5,3.1,24.5,3.1z"/>
	<path class="st1" d="M34.7,28.3c0,0-2.2-1.1-3.6-1.8c-1.6-0.8-3.4,0.7-4.2,1.6c-1.3-0.5-2.6-1.3-3.6-2.3c-1-1-1.8-2.3-2.3-3.6
		c0.9-0.9,2.3-2.7,1.6-4.2c-0.7-1.4-1.8-3.6-1.8-3.6c-0.2-0.3-0.5-0.5-0.8-0.5h-1.8c-2.6,0.5-4.5,2.7-4.5,5.4
		c0,2.8,3.4,8.2,5.6,10.5s7.7,5.6,10.5,5.6c2.6,0,4.9-1.9,5.4-4.5v-1.8C35.2,28.7,35,28.4,34.7,28.3z"/>
</g>
</svg>
